<svg xmlns="http://www.w3.org/2000/svg" viewBox="0 0 96 96" role="img" aria-labelledby="title">
  <title>Bee avatar</title>
  <g fill="none" stroke="#292524" stroke-width="4" stroke-linecap="round" stroke-linejoin="round">
    <path fill="#dbeafe" d="M36 37C21 22 9 29 14 43c4 10 15 11 24 4"/>
    <path fill="#dbeafe" d="M60 37c15-15 27-8 22 6-4 10-15 11-24 4"/>
    <path fill="#fde047" d="M20 60c0-16 12-28 28-28s28 12 28 28-12 27-28 27-28-11-28-27Z"/>
    <path fill="#292524" d="M32 38c-7 7-9 20-4 30"/>
    <path fill="#292524" d="M49 33c-7 11-8 34 0 51"/>
    <path fill="#292524" d="M66 44c4 9 3 20-2 29"/>
    <path d="M40 27 34 17"/>
    <path d="M56 27l6-10"/>
  </g>
  <g class="eyes" fill="#292524">
    <circle cx="40" cy="56" r="4"/>
    <circle cx="57" cy="56" r="4"/>
    <circle cx="41" cy="54" r="1.2" fill="#fff"/>
    <circle cx="58" cy="54" r="1.2" fill="#fff"/>
  </g>
  <g class="mouth" fill="none" stroke="#292524" stroke-width="4" stroke-linecap="round">
    <path d="M43 67c4 3 8 3 12 0"/>
  </g>
</svg>
