<svg xmlns="http://www.w3.org/2000/svg" viewBox="0 0 96 96" role="img" aria-labelledby="title">
  <title>Black Cat avatar</title>
  <g fill="none" stroke="#292524" stroke-width="4" stroke-linecap="round" stroke-linejoin="round">
    <path fill="#202020" d="M23 44 22 17l18 17a38 38 0 0 1 16 0l18-17-1 27c5 6 8 13 8 21 0 15-14 23-33 23s-33-8-33-23c0-8 3-15 8-21Z"/>
    <path fill="#f9fafb" d="M42 76c3 4 9 4 12 0-3-3-9-3-12 0Z"/>
    <path d="M31 57h-9"/>
    <path d="M33 63H20"/>
    <path d="M65 57h9"/>
    <path d="M63 63h13"/>
  </g>
  <g class="eyes">
    <path fill="#facc15" stroke="#292524" stroke-width="4" stroke-linejoin="round" d="M31 49c4-5 12-5 16 0-4 5-12 5-16 0Z"/>
    <path fill="#facc15" stroke="#292524" stroke-width="4" stroke-linejoin="round" d="M49 49c4-5 12-5 16 0-4 5-12 5-16 0Z"/>
    <circle cx="39" cy="49" r="2" fill="#292524"/>
    <circle cx="57" cy="49" r="2" fill="#292524"/>
  </g>
  <g class="mouth" fill="none" stroke="#f8fafc" stroke-width="3" stroke-linecap="round" stroke-linejoin="round">
    <path d="M48 58v3"/>
    <path d="M42 63c3 3 9 3 12 0"/>
  </g>
</svg>
