<svg xmlns="http://www.w3.org/2000/svg" viewBox="0 0 96 96" role="img" aria-labelledby="title">
  <title>Boston Terrier avatar</title>
  <g fill="none" stroke="#292524" stroke-width="4" stroke-linecap="round" stroke-linejoin="round">
    <path fill="#242424" d="M23 38 18 15l19 11 11-4 11 4 19-11-5 23c6 7 8 17 5 27-4 13-16 20-30 20S22 78 18 65c-3-10-1-20 5-27Z"/>
    <path fill="#fffaf0" d="M33 28c8 10 22 10 30 0 6 8 9 16 8 27-1 15-10 26-23 26S26 70 25 55c-1-11 2-19 8-27Z"/>
    <path fill="#242424" d="M25 34c8 1 16 7 18 16-9-1-17-5-23-12 1-2 3-4 5-4Z"/>
    <path fill="#242424" d="M56 28c5-4 11-6 17-7l-4 17c-7 7-15 11-23 12 1-9 5-16 10-22Z"/>
    <path fill="#fffaf0" d="M39 54c4-4 14-4 18 0 3 4 2 14-9 14s-12-10-9-14Z"/>
  </g>
  <g class="eyes" fill="#292524">
    <circle cx="36" cy="47" r="4"/>
    <circle cx="60" cy="47" r="4"/>
    <circle cx="37" cy="45" r="1.2" fill="#fff"/>
    <circle cx="61" cy="45" r="1.2" fill="#fff"/>
  </g>
  <g class="mouth" fill="none" stroke="#292524" stroke-width="4" stroke-linecap="round" stroke-linejoin="round">
    <path d="M48 53v4"/>
    <path d="M42 60c3 3 9 3 12 0"/>
    <path fill="#f9a8b6" d="M48 64c5 0 8-2 8-2 0 7-3 11-8 11s-8-4-8-11c0 0 3 2 8 2Z"/>
  </g>
</svg>
