<svg xmlns="http://www.w3.org/2000/svg" viewBox="0 0 96 96" role="img" aria-labelledby="title">
  <title>Frog avatar</title>
  <g fill="none" stroke="#292524" stroke-width="4" stroke-linecap="round" stroke-linejoin="round">
    <path fill="#4ade80" d="M19 59c0-19 12-31 29-31s29 12 29 31c0 17-12 28-29 28S19 76 19 59Z"/>
    <path fill="#86efac" d="M27 47c2-10 10-16 21-16s19 6 21 16"/>
    <path fill="#4ade80" d="M25 45c-5-8-4-16 2-20 7 3 10 10 9 18"/>
    <path fill="#4ade80" d="M71 45c5-8 4-16-2-20-7 3-10 10-9 18"/>
  </g>
  <g class="eyes">
    <circle cx="37" cy="52" r="9" fill="#dcfce7" stroke="#292524" stroke-width="4"/>
    <circle cx="59" cy="52" r="9" fill="#dcfce7" stroke="#292524" stroke-width="4"/>
    <circle cx="39" cy="53" r="3.5" fill="#292524"/>
    <circle cx="57" cy="53" r="3.5" fill="#292524"/>
  </g>
  <g class="mouth" fill="none" stroke="#292524" stroke-width="4" stroke-linecap="round" stroke-linejoin="round">
    <path d="M39 68c6 5 12 5 18 0"/>
    <path fill="#f9a8d4" d="M57 69c2 7 9 8 12 3-5 1-9 0-12-3Z"/>
  </g>
</svg>
