<svg xmlns="http://www.w3.org/2000/svg" viewBox="0 0 96 96" role="img" aria-labelledby="title">
  <title>Frog Wizard avatar</title>
  <g fill="none" stroke="#292524" stroke-width="4" stroke-linecap="round" stroke-linejoin="round">
    <path fill="#60a5fa" d="M47 7 33 35h29L47 7Z"/>
    <path fill="#facc15" d="M58 22 66 18l-2 8 6 5-8 1-4 7-3-8-8-2 7-5 4-2Z"/>
    <path fill="#4ade80" d="M21 60c0-19 11-31 27-31s27 12 27 31c0 17-11 27-27 27S21 77 21 60Z"/>
    <path fill="#86efac" d="M27 45c2-9 10-14 21-14s19 5 21 14"/>
    <path fill="#a16207" d="M76 45v31"/>
    <path fill="#fef08a" d="m76 36 4 6 7 2-6 4-2 7-4-6-7-2 6-4 2-7Z"/>
  </g>
  <g class="eyes">
    <circle cx="37" cy="54" r="8" fill="#dcfce7" stroke="#292524" stroke-width="4"/>
    <circle cx="59" cy="54" r="8" fill="#dcfce7" stroke="#292524" stroke-width="4"/>
    <circle cx="39" cy="55" r="3" fill="#292524"/>
    <circle cx="57" cy="55" r="3" fill="#292524"/>
  </g>
  <g class="mouth" fill="none" stroke="#292524" stroke-width="4" stroke-linecap="round">
    <path d="M41 68c5 4 9 4 14 0"/>
  </g>
</svg>
