<svg xmlns="http://www.w3.org/2000/svg" viewBox="0 0 80 80" role="img" aria-labelledby="title"><title>Black Spike Bug</title><g fill="none" stroke="#292524" stroke-width="4" stroke-linecap="round" stroke-linejoin="round"><path fill="#3f3f46" d="m40 8 7 14 15-5-5 15 14 7-14 7 5 15-15-5-7 14-7-14-15 5 5-15-14-7 14-7-5-15 15 5 7-14Z"/><path fill="#71717a" d="M31 25c6-4 13-5 20-2"/></g><g fill="#fff" stroke="#292524" stroke-width="3"><circle cx="33" cy="41" r="6"/><circle cx="49" cy="41" r="6"/></g><circle cx="35" cy="42" r="2" fill="#292524"/><circle cx="47" cy="42" r="2" fill="#292524"/><path fill="none" stroke="#fff" stroke-width="4" stroke-linecap="round" d="M35 53c4 3 8 3 12 0"/></svg>
