<svg xmlns="http://www.w3.org/2000/svg" viewBox="0 0 80 80" role="img" aria-labelledby="title"><title>Blue Map Bug</title><g fill="none" stroke="#292524" stroke-width="4" stroke-linecap="round" stroke-linejoin="round"><path fill="#93c5fd" d="M18 29c9-12 27-15 41-6 12 8 10 27-3 38-10 8-30 10-39 0-7-8-5-22 1-32Z"/><path fill="#2563eb" d="M27 30c6-4 11-5 16-3"/><path fill="#2563eb" d="M51 41c5 2 8 6 10 12"/><path d="M28 20 22 10"/><path d="M54 20l7-9"/></g><g fill="#fff" stroke="#292524" stroke-width="3"><circle cx="34" cy="43" r="6"/><circle cx="51" cy="43" r="6"/></g><circle cx="35" cy="44" r="2" fill="#292524"/><circle cx="50" cy="44" r="2" fill="#292524"/><path fill="none" stroke="#292524" stroke-width="4" stroke-linecap="round" d="M36 55c4 2 8 2 12 0"/></svg>
