<svg xmlns="http://www.w3.org/2000/svg" viewBox="0 0 80 80" role="img" aria-labelledby="title"><title>Blue Noodle Bug</title><g fill="none" stroke="#292524" stroke-width="4" stroke-linecap="round" stroke-linejoin="round"><path fill="#38bdf8" d="M13 48c8-21 23-31 39-27 14 4 20 18 13 30-7 13-26 18-39 13-9-4-16-7-13-16Z"/><path fill="#bae6fd" d="M27 31c8-5 17-6 26-2"/><path d="M25 21 20 11"/><path d="M55 24l8-7"/></g><g fill="#fff" stroke="#292524" stroke-width="3"><circle cx="35" cy="45" r="6"/><circle cx="53" cy="43" r="6"/></g><circle cx="37" cy="46" r="2.2" fill="#292524"/><circle cx="51" cy="44" r="2.2" fill="#292524"/><path fill="none" stroke="#292524" stroke-width="4" stroke-linecap="round" d="M38 56c5 2 10 1 14-3"/></svg>
