<svg xmlns="http://www.w3.org/2000/svg" viewBox="0 0 80 80" role="img" aria-labelledby="title"><title>Green Giggle Bug</title><g fill="none" stroke="#292524" stroke-width="4" stroke-linecap="round" stroke-linejoin="round"><path fill="#4ade80" d="M15 45c0-17 12-28 26-28 17 0 27 13 24 29-2 13-12 23-27 22-14-1-23-10-23-23Z"/><path fill="#bbf7d0" d="M29 27c5-5 12-7 20-5"/><path d="M25 19 18 9"/><path d="M56 21l8-7"/></g><g fill="#fff" stroke="#292524" stroke-width="3"><circle cx="34" cy="42" r="6"/><circle cx="51" cy="42" r="6"/></g><circle cx="36" cy="43" r="2" fill="#292524"/><circle cx="49" cy="43" r="2" fill="#292524"/><path fill="#f9a8d4" stroke="#292524" stroke-width="4" stroke-linejoin="round" d="M32 53c7 8 17 8 23 0-5 14-18 14-23 0Z"/></svg>
