<svg xmlns="http://www.w3.org/2000/svg" viewBox="0 0 80 80" role="img" aria-labelledby="title"><title>Long Leg Bug</title><g fill="none" stroke="#292524" stroke-width="4" stroke-linecap="round" stroke-linejoin="round"><path fill="#f0abfc" d="M25 39c0-12 7-20 17-20s17 8 17 20-7 21-17 21-17-9-17-21Z"/><path d="M28 56 16 72"/><path d="M38 59 34 73"/><path d="M50 58l8 15"/><path d="M56 51l15 9"/><path d="M29 22 22 12"/><path d="M55 23l7-9"/></g><g fill="#fff" stroke="#292524" stroke-width="3"><circle cx="36" cy="38" r="6"/><circle cx="50" cy="38" r="6"/></g><circle cx="37" cy="39" r="2" fill="#292524"/><circle cx="49" cy="39" r="2" fill="#292524"/><path fill="none" stroke="#292524" stroke-width="4" stroke-linecap="round" d="M37 50c4 3 8 3 12 0"/></svg>
