<svg xmlns="http://www.w3.org/2000/svg" viewBox="0 0 80 80" role="img" aria-labelledby="title"><title>Moon Blob Bug</title><g fill="none" stroke="#292524" stroke-width="4" stroke-linecap="round" stroke-linejoin="round"><path fill="#cbd5e1" d="M61 18c-14-2-27 7-31 21-4 15 4 27 17 32-18 0-32-12-32-29 0-16 13-30 31-30 6 0 11 2 15 6Z"/><path fill="#f8fafc" d="M37 22c-6 4-10 9-12 17"/><path d="M30 18 24 9"/><path d="M55 20l8-6"/></g><g fill="#fff" stroke="#292524" stroke-width="3"><circle cx="38" cy="42" r="6"/><circle cx="53" cy="43" r="5"/></g><circle cx="40" cy="43" r="2" fill="#292524"/><circle cx="52" cy="44" r="2" fill="#292524"/><path fill="none" stroke="#292524" stroke-width="4" stroke-linecap="round" d="M39 55c4 2 8 2 12 0"/></svg>
