<svg xmlns="http://www.w3.org/2000/svg" viewBox="0 0 80 80" role="img" aria-labelledby="title"><title>Pink Doodle Bug</title><g fill="none" stroke="#292524" stroke-width="4" stroke-linecap="round" stroke-linejoin="round"><path fill="#f9a8d4" d="M18 49c-2-15 6-27 18-30 12-4 26 3 29 17 3 12-2 26-15 31-15 6-30-3-32-18Z"/><path fill="#f472b6" d="M27 34c7 0 12 4 15 10s8 8 14 7"/><path d="M30 20 24 10"/><path d="M54 23l9-7"/></g><g fill="#fff" stroke="#292524" stroke-width="3"><circle cx="34" cy="43" r="6"/><circle cx="50" cy="43" r="6"/></g><circle cx="33" cy="44" r="2" fill="#292524"/><circle cx="49" cy="44" r="2" fill="#292524"/><path fill="none" stroke="#292524" stroke-width="4" stroke-linecap="round" d="M36 56c5 3 9 2 13-2"/></svg>
