<svg xmlns="http://www.w3.org/2000/svg" viewBox="0 0 80 80" role="img" aria-labelledby="title"><title>Purple Fuzz Bug</title><g fill="none" stroke="#292524" stroke-width="4" stroke-linecap="round" stroke-linejoin="round"><path fill="#c084fc" d="M18 43c-7-8 2-15 10-10-2-10 11-16 17-7 5-10 18-3 16 7 9-5 17 4 10 12 8 7 0 18-10 13-1 11-17 13-21 3-6 9-20 5-18-6-10 3-16-6-4-12Z"/><path d="M29 22 23 12"/><path d="M56 23l8-8"/></g><g fill="#fff" stroke="#292524" stroke-width="3"><circle cx="34" cy="43" r="6"/><circle cx="51" cy="43" r="6"/></g><circle cx="35" cy="44" r="2" fill="#292524"/><circle cx="50" cy="44" r="2" fill="#292524"/><path fill="none" stroke="#292524" stroke-width="4" stroke-linecap="round" d="M37 56c4 2 7 2 11 0"/></svg>
