<svg xmlns="http://www.w3.org/2000/svg" viewBox="0 0 80 80" role="img" aria-labelledby="title"><title>Red Scallop Bug</title><g fill="none" stroke="#292524" stroke-width="4" stroke-linecap="round" stroke-linejoin="round"><path fill="#fb7185" d="M14 45c0-6 4-10 9-10 0-7 5-12 12-10 3-7 13-7 16 0 7-2 12 3 12 10 5 0 9 4 9 10 0 14-13 24-29 24S14 59 14 45Z"/><path fill="#fecdd3" d="M30 31c5-4 11-5 18-3"/><path d="M25 24 21 14"/><path d="M56 25l7-8"/></g><g fill="#fff" stroke="#292524" stroke-width="3"><circle cx="34" cy="44" r="6"/><circle cx="50" cy="44" r="6"/></g><circle cx="36" cy="45" r="2.2" fill="#292524"/><circle cx="48" cy="45" r="2.2" fill="#292524"/><path fill="none" stroke="#292524" stroke-width="4" stroke-linecap="round" d="M36 56c4 3 8 3 12 0"/></svg>
