<svg xmlns="http://www.w3.org/2000/svg" viewBox="0 0 80 80" role="img" aria-labelledby="title"><title>Spotted Heart Bug</title><g fill="none" stroke="#292524" stroke-width="4" stroke-linecap="round" stroke-linejoin="round"><path fill="#fb7185" d="M40 68C24 56 14 46 14 33c0-10 8-17 17-13 4 2 7 5 9 9 2-4 5-7 9-9 9-4 17 3 17 13 0 13-10 23-26 35Z"/><circle cx="30" cy="35" r="3" fill="#fecdd3"/><circle cx="52" cy="36" r="3" fill="#fecdd3"/><path d="M27 22 20 13"/><path d="M55 22l7-9"/></g><g fill="#fff" stroke="#292524" stroke-width="3"><circle cx="34" cy="44" r="5"/><circle cx="49" cy="44" r="5"/></g><circle cx="35" cy="45" r="1.8" fill="#292524"/><circle cx="48" cy="45" r="1.8" fill="#292524"/><path fill="none" stroke="#292524" stroke-width="4" stroke-linecap="round" d="M36 55c4 2 8 2 12 0"/></svg>
