<svg xmlns="http://www.w3.org/2000/svg" viewBox="0 0 80 80" role="img" aria-labelledby="title"><title>Squiggle Shell Bug</title><g fill="none" stroke="#292524" stroke-width="4" stroke-linecap="round" stroke-linejoin="round"><path fill="#fb7185" d="M17 47c0-16 10-27 25-27s24 11 24 26c0 15-10 24-25 24s-24-8-24-23Z"/><path fill="#fef08a" d="M27 33c7-6 18-6 26 0"/><path fill="#fef08a" d="M25 45c9 6 22 6 33 0"/><path d="M28 20 21 11"/><path d="M55 21l8-8"/></g><g fill="#fff" stroke="#292524" stroke-width="3"><circle cx="34" cy="46" r="6"/><circle cx="51" cy="46" r="6"/></g><circle cx="35" cy="47" r="2" fill="#292524"/><circle cx="50" cy="47" r="2" fill="#292524"/><path fill="none" stroke="#292524" stroke-width="4" stroke-linecap="round" d="M37 58c4 2 8 2 12 0"/></svg>
