<svg xmlns="http://www.w3.org/2000/svg" viewBox="0 0 80 80" role="img" aria-labelledby="title"><title>Teal Goober Bug</title><g fill="none" stroke="#292524" stroke-width="4" stroke-linecap="round" stroke-linejoin="round"><path fill="#2dd4bf" d="M18 50c-6-20 7-35 21-34 15 1 27 15 22 34-4 15-16 21-27 18-8-2-14-8-16-18Z"/><path fill="#99f6e4" d="M29 27c4-4 10-6 18-4"/><path d="M24 56H12"/><path d="M56 56h12"/><path d="M28 18 23 9"/><path d="M53 19l7-9"/></g><g fill="#fff" stroke="#292524" stroke-width="3"><circle cx="34" cy="42" r="7"/><circle cx="50" cy="42" r="5"/></g><circle cx="36" cy="43" r="2" fill="#292524"/><circle cx="49" cy="43" r="2" fill="#292524"/><path fill="none" stroke="#292524" stroke-width="4" stroke-linecap="round" d="M35 55c4 3 9 3 13 0"/></svg>
