<svg xmlns="http://www.w3.org/2000/svg" viewBox="0 0 80 80" role="img" aria-labelledby="title"><title>Three Eye Bug</title><g fill="none" stroke="#292524" stroke-width="4" stroke-linecap="round" stroke-linejoin="round"><path fill="#34d399" d="M16 47c0-17 10-29 25-29s25 12 25 29c0 14-10 23-25 23s-25-9-25-23Z"/><path fill="#a7f3d0" d="M31 26c5-4 11-5 18-3"/><path d="M28 19 22 9"/><path d="M55 20l7-9"/></g><g fill="#fff" stroke="#292524" stroke-width="3"><circle cx="31" cy="43" r="5"/><circle cx="43" cy="37" r="5"/><circle cx="55" cy="43" r="5"/></g><g fill="#292524"><circle cx="32" cy="44" r="1.8"/><circle cx="43" cy="38" r="1.8"/><circle cx="54" cy="44" r="1.8"/></g><path fill="none" stroke="#292524" stroke-width="4" stroke-linecap="round" d="M36 56c5 3 9 3 14 0"/></svg>
