<svg xmlns="http://www.w3.org/2000/svg" viewBox="0 0 80 80" role="img" aria-labelledby="title"><title>Tiny Wing Bug</title><g fill="none" stroke="#292524" stroke-width="4" stroke-linecap="round" stroke-linejoin="round"><path fill="#dbeafe" d="M22 38c-12-11-3-22 11-15"/><path fill="#dbeafe" d="M58 38c12-11 3-22-11-15"/><path fill="#a78bfa" d="M20 47c0-15 9-25 21-25s21 10 21 25c0 14-9 22-21 22s-21-8-21-22Z"/><path d="M30 21 25 12"/><path d="M52 21l6-9"/></g><g fill="#fff" stroke="#292524" stroke-width="3"><circle cx="35" cy="43" r="6"/><circle cx="49" cy="43" r="6"/></g><circle cx="37" cy="44" r="2" fill="#292524"/><circle cx="47" cy="44" r="2" fill="#292524"/><path fill="none" stroke="#292524" stroke-width="4" stroke-linecap="round" d="M36 55c4 3 8 3 12 0"/></svg>
